<?xml version="1.0" standalone="no"?>
<!DOCTYPE svg PUBLIC "-//W3C//DTD SVG 20010904//EN"
 "http://www.w3.org/TR/2001/REC-SVG-20010904/DTD/svg10.dtd">
<svg version="1.0" xmlns="http://www.w3.org/2000/svg"
 width="50pt" height="50pt" viewBox="0 0 726.000000 726.000000"
 preserveAspectRatio="xMidYMid meet">
<metadata>
Created by potrace 1.15, written by Peter Selinger 2001-2017
</metadata>
<g transform="translate(0.000000,726.000000) scale(0.100000,-0.100000)"
fill="#000000" stroke="none">
<path d="M4720 5015 c-402 -45 -822 -170 -1228 -365 l-143 -69 -42 58 c-23 31
-91 128 -152 214 -60 86 -111 152 -113 147 -3 -9 29 -286 44 -384 4 -25 3 -36
-4 -32 -5 3 -67 87 -137 186 -70 100 -129 179 -130 178 -2 -2 14 -138 34 -303
l38 -300 -38 -40 c-101 -108 -164 -239 -194 -400 -9 -50 -18 -92 -20 -93 -2
-2 -229 199 -505 448 -276 248 -499 446 -494 439 4 -6 236 -309 516 -673 280
-363 511 -665 513 -671 2 -5 17 -69 34 -141 18 -72 54 -202 82 -290 151 -476
193 -814 129 -1033 -24 -82 -22 -128 10 -191 58 -114 201 -203 361 -225 62 -8
167 10 235 40 67 30 163 119 210 197 82 134 203 560 298 1048 38 193 86 483
86 519 0 22 16 10 29 -21 42 -106 117 -329 142 -427 59 -229 70 -327 79 -696
5 -230 13 -369 24 -430 50 -287 209 -744 381 -1094 78 -158 190 -361 199 -361
10 0 241 102 316 140 47 23 141 76 210 118 466 279 863 654 1154 1092 303 454
482 907 570 1440 l23 135 -22 65 c-34 100 -124 317 -165 400 l-38 75 -207 70
c-114 38 -209 73 -210 76 -2 3 58 14 133 24 205 27 193 11 104 146 -80 120
-189 259 -289 367 l-58 63 -394 -46 c-217 -25 -396 -44 -397 -42 -2 2 125 59
284 126 158 68 290 126 294 130 13 11 -162 120 -307 191 -223 110 -449 174
-704 200 -135 13 -397 11 -541 -5z"/>
</g>
</svg>
